<svg id="Layer_1" data-name="Layer 1" xmlns="http://www.w3.org/2000/svg" viewBox="0 0 180.27 180.1"><defs><style>.cls-1{fill:#fbb95e;}</style></defs><path id="Selection" class="cls-1" d="M33.75,12H181.53c2.76,0,5.82-.07,8,1.88C192.26,16.26,192,20,192,23.25V84.76C192,94.18,190.19,96,180.78,96h-39c-7.43-.09-9.66-2.32-9.75-9.75V70.51a20.86,20.86,0,0,1,.43-5.25c2.65-9.12,15.1-2.8,20.49-6.56,4-2.75,3.48-7.59-.7-9.82-1.94-1-4.57-.87-6.72-.87h-87c-2.51,0-5.26-.21-7.42,1.3-4.29,3-3.25,8.31,1.43,10.14,1.65.66,4.2.56,6,.56h51c9.1,0,10.48,2.59,10.5,11.25V94.51c0,3.07-.47,7.89,1.3,10.42,2.31,3.33,5.62,3.08,9.2,3.09h51c9.1,0,10.48,2.59,10.5,11.25v61.51c0,9.41-1.84,11.23-11.25,11.25H119.27c-8.66,0-11.21-1.4-11.25-10.5V165.77c0-3.2.16-6.35,3.09-8.36,2.29-1.56,5.5-1.38,8.16-1.39H147c9.67-.13,10.63-7.42,5.92-10.69-2.16-1.51-4.91-1.3-7.42-1.31H57c-9.67.14-10.63,7.42-5.92,10.7,2.16,1.5,4.91,1.29,7.42,1.3H86.26c8.73.11,9.74,3.35,9.75,11.25V177c0,3.67.63,9.71-1.88,12.55C91.75,192.26,88,192,84.76,192H23.25C13.84,192,12,190.19,12,180.78V119.27C12,109.85,13.84,108,23.25,108H73.51c1.79,0,4.34.09,6-.56,4.68-1.84,5.72-7.16,1.43-10.14C78.77,95.81,76,96,73.51,96h-51C13.4,96,12,93.42,12,84.76v-54c0-6.52-2-15.4,5.25-18.32C21.48,11.66,29.16,12,33.75,12Z" transform="translate(-11.76 -11.93)"/></svg>