<svg id="Layer_1" data-name="Layer 1" xmlns="http://www.w3.org/2000/svg" viewBox="0 0 180.25 180.08"><defs><style>.cls-1{fill:#fff;}</style></defs><path id="Selection" class="cls-1" d="M60.29,38.3H208c2.77,0,5.83-.07,8,1.88,2.69,2.38,2.45,6.11,2.46,9.37v61.5c0,9.41-1.84,11.24-11.25,11.25h-39c-7.43-.09-9.66-2.32-9.75-9.75V96.8a20.9,20.9,0,0,1,.43-5.25c2.65-9.12,15.09-2.8,20.49-6.55,4-2.76,3.48-7.59-.7-9.82-1.94-1-4.57-.88-6.72-.88H85c-2.51,0-5.26-.2-7.42,1.31-4.29,3-3.25,8.3,1.43,10.14,1.65.65,4.2.55,6,.55h51c9.1,0,10.48,2.6,10.5,11.25V120.8c0,3.07-.47,7.88,1.3,10.42,2.31,3.33,5.62,3.07,9.2,3.08h51c9.1,0,10.48,2.6,10.5,11.25v61.5c0,9.41-1.84,11.24-11.25,11.25h-61.5c-8.66,0-11.21-1.39-11.25-10.5V192.05c0-3.2.16-6.35,3.1-8.36,2.28-1.56,5.49-1.38,8.15-1.39h27.75c9.67-.13,10.63-7.42,5.92-10.69-2.16-1.51-4.92-1.3-7.42-1.31H83.54c-9.67.14-10.63,7.42-5.92,10.7,2.16,1.5,4.91,1.29,7.42,1.3h27.75c8.73.11,9.73,3.35,9.75,11.25v9.75c0,3.66.62,9.71-1.88,12.54s-6.11,2.45-9.37,2.46H49.79c-9.41,0-11.24-1.84-11.25-11.25v-61.5c0-9.41,1.84-11.23,11.25-11.25H100c1.79,0,4.33.1,6-.55,4.68-1.84,5.73-7.16,1.44-10.14-2.16-1.51-4.92-1.3-7.42-1.31H49c-9.11,0-10.49-2.59-10.5-11.25v-54c0-6.52-2-15.4,5.25-18.32C48,38,55.69,38.3,60.29,38.3Z" transform="translate(-38.29 -38.23)"/></svg>