<?xml version="1.0" encoding="UTF-8" standalone="no"?>
<!DOCTYPE svg PUBLIC "-//W3C//DTD SVG 20010904//EN"
              "http://www.w3.org/TR/2001/REC-SVG-20010904/DTD/svg10.dtd">

<svg xmlns="http://www.w3.org/2000/svg"
     width="2.83373in" height="2.83373in"
     viewBox="0 0 272 272">
  <path id="Selection"
        fill="none" stroke="black" stroke-width="1"
        d="M 45.00,16.00
           C 45.00,16.00 83.00,16.00 83.00,16.00
             83.00,16.00 203.00,16.00 203.00,16.00
             203.00,16.00 242.00,16.00 242.00,16.00
             245.69,16.02 249.77,15.90 252.72,18.51
             256.31,21.68 255.99,26.65 256.00,31.00
             256.00,31.00 256.00,113.00 256.00,113.00
             255.98,125.55 253.55,127.98 241.00,128.00
             241.00,128.00 189.00,128.00 189.00,128.00
             179.10,127.88 176.12,124.90 176.00,115.00
             176.00,115.00 176.00,94.00 176.00,94.00
             176.01,91.84 175.97,89.06 176.57,87.00
             180.11,74.84 196.70,83.27 203.89,78.26
             209.17,74.59 208.53,68.14 202.96,65.17
             200.37,63.79 196.87,64.00 194.00,64.00
             194.00,64.00 78.00,64.00 78.00,64.00
             74.66,64.01 70.99,63.73 68.11,65.74
             62.39,69.72 63.78,76.81 70.02,79.26
             72.22,80.13 75.61,80.00 78.00,80.00
             78.00,80.00 146.00,80.00 146.00,80.00
             158.14,80.06 159.98,83.46 160.00,95.00
             160.00,95.00 160.00,126.00 160.00,126.00
             160.00,130.09 159.38,136.51 161.74,139.89
             164.82,144.33 169.23,143.99 174.00,144.00
             174.00,144.00 242.00,144.00 242.00,144.00
             254.14,144.06 255.98,147.46 256.00,159.00
             256.00,159.00 256.00,241.00 256.00,241.00
             255.98,253.55 253.55,255.98 241.00,256.00
             241.00,256.00 159.00,256.00 159.00,256.00
             147.46,255.98 144.06,254.14 144.00,242.00
             144.00,242.00 144.00,221.00 144.00,221.00
             144.06,216.73 144.22,212.53 148.13,209.85
             151.18,207.77 155.46,208.01 159.00,208.00
             159.00,208.00 196.00,208.00 196.00,208.00
             208.89,207.82 210.17,198.11 203.89,193.74
             201.01,191.73 197.34,192.01 194.00,192.00
             194.00,192.00 103.00,192.00 103.00,192.00
             103.00,192.00 76.00,192.00 76.00,192.00
             63.11,192.18 61.83,201.89 68.11,206.26
             70.99,208.27 74.66,207.99 78.00,208.00
             78.00,208.00 115.00,208.00 115.00,208.00
             126.64,208.14 127.98,212.47 128.00,223.00
             128.00,223.00 128.00,236.00 128.00,236.00
             128.00,240.88 128.83,248.94 125.49,252.72
             122.32,256.31 117.35,255.99 113.00,256.00
             113.00,256.00 31.00,256.00 31.00,256.00
             18.45,255.98 16.02,253.55 16.00,241.00
             16.00,241.00 16.00,159.00 16.00,159.00
             16.02,146.45 18.45,144.02 31.00,144.00
             31.00,144.00 98.00,144.00 98.00,144.00
             100.39,144.00 103.78,144.13 105.98,143.26
             112.22,140.81 113.61,133.72 107.89,129.74
             105.01,127.73 101.34,128.01 98.00,128.00
             98.00,128.00 30.00,128.00 30.00,128.00
             17.86,127.94 16.02,124.54 16.00,113.00
             16.00,113.00 16.00,41.00 16.00,41.00
             16.00,32.30 13.38,20.46 23.00,16.57
             28.63,15.55 38.87,16.00 45.00,16.00 Z" />
</svg>
